<svg width="192" height="192" viewBox="0 0 192 192" fill="none" xmlns="http://www.w3.org/2000/svg">
<path d="M192 96C192 149.019 149.019 192 96 192C42.9807 192 0 149.019 0 96C0 42.9807 42.9807 0 96 0C149.019 0 192 42.9807 192 96ZM3.97218 96C3.97218 146.826 45.1744 188.028 96 188.028C146.826 188.028 188.028 146.826 188.028 96C188.028 45.1744 146.826 3.97218 96 3.97218C45.1744 3.97218 3.97218 45.1744 3.97218 96Z" fill="white" fill-opacity="0.1"/>
<path d="M192 96C192 149.019 149.019 192 96 192C42.9807 192 0 149.019 0 96C0 42.9807 42.9807 0 96 0C149.019 0 192 42.9807 192 96ZM3.97218 96C3.97218 146.826 45.1744 188.028 96 188.028C146.826 188.028 188.028 146.826 188.028 96C188.028 45.1744 146.826 3.97218 96 3.97218C45.1744 3.97218 3.97218 45.1744 3.97218 96Z" fill="#EE7096"/>
</svg>
