<svg width="192" height="192" viewBox="0 0 192 192" fill="none" xmlns="http://www.w3.org/2000/svg">
<path d="M192 96C192 149.019 149.019 192 96 192C42.9807 192 0 149.019 0 96C0 42.9807 42.9807 0 96 0C149.019 0 192 42.9807 192 96ZM3.97218 96C3.97218 146.826 45.1744 188.028 96 188.028C146.826 188.028 188.028 146.826 188.028 96C188.028 45.1744 146.826 3.97218 96 3.97218C45.1744 3.97218 3.97218 45.1744 3.97218 96Z" fill="white" fill-opacity="0.1"/>
<path d="M192 96C192 120.393 182.714 143.871 166.03 161.665C149.345 179.459 126.512 190.234 102.17 191.802C77.8277 193.369 53.8014 185.612 34.972 170.105C16.1425 154.599 3.92206 132.506 0.79309 108.314C-2.33588 84.1232 3.8613 59.6481 18.1257 39.8609C32.3901 20.0738 53.652 6.45866 77.5921 1.78138C101.532 -2.8959 126.355 1.71544 147.018 14.6786C167.681 27.6419 182.634 47.9847 188.841 71.5747L184.999 72.5853C179.05 49.9714 164.715 30.4703 144.907 18.0435C125.099 5.61664 101.303 1.1961 78.3537 5.67985C55.4042 10.1636 35.0221 23.2154 21.3479 42.1838C7.67371 61.1522 1.73295 84.6146 4.73246 107.805C7.73197 130.995 19.4468 152.174 37.4971 167.039C55.5475 181.904 78.5796 189.34 101.915 187.838C125.25 186.335 147.138 176.005 163.132 158.948C179.126 141.89 188.028 119.383 188.028 96H192Z" fill="#EE7096"/>
</svg>
